<svg xmlns="http://www.w3.org/2000/svg" viewBox="0 0 64 64">
  <defs>
    <linearGradient id="bg" x1="0" y1="0" x2="1" y2="1">
      <stop offset="0" stop-color="#14b8a6"/>
      <stop offset="1" stop-color="#0d9488"/>
    </linearGradient>
    <mask id="gear">
      <g fill="#ffffff">
        <circle cx="32" cy="32" r="18"/>
        <polygon points="27.5,14 36.5,14 35.5,7.5 28.5,7.5"/>
        <polygon points="27.5,14 36.5,14 35.5,7.5 28.5,7.5" transform="rotate(45 32 32)"/>
        <polygon points="27.5,14 36.5,14 35.5,7.5 28.5,7.5" transform="rotate(90 32 32)"/>
        <polygon points="27.5,14 36.5,14 35.5,7.5 28.5,7.5" transform="rotate(135 32 32)"/>
        <polygon points="27.5,14 36.5,14 35.5,7.5 28.5,7.5" transform="rotate(180 32 32)"/>
        <polygon points="27.5,14 36.5,14 35.5,7.5 28.5,7.5" transform="rotate(225 32 32)"/>
        <polygon points="27.5,14 36.5,14 35.5,7.5 28.5,7.5" transform="rotate(270 32 32)"/>
        <polygon points="27.5,14 36.5,14 35.5,7.5 28.5,7.5" transform="rotate(315 32 32)"/>
      </g>
      <circle cx="32" cy="32" r="7" fill="#000000"/>
    </mask>
  </defs>

  <rect width="64" height="64" rx="14" fill="url(#bg)"/>
  <rect width="64" height="64" fill="#ffffff" mask="url(#gear)"/>
</svg>
